<?xml version="1.0" standalone="no"?><!DOCTYPE svg PUBLIC "-//W3C//DTD SVG 1.1//EN" "http://www.w3.org/Graphics/SVG/1.1/DTD/svg11.dtd"><svg t="1503548948585" class="icon" style="" viewBox="0 0 1024 1024" version="1.1" xmlns="http://www.w3.org/2000/svg" p-id="4220" xmlns:xlink="http://www.w3.org/1999/xlink" width="200" height="200"><defs><style type="text/css"></style></defs><path d="M233.130667 258.688c0 23.637333 13.013333 45.525333 34.176 57.344s47.232 11.818667 68.394666 0 34.218667-33.706667 34.218667-57.344c0-36.565333-30.634667-66.218667-68.394667-66.218667s-68.394667 29.653333-68.394666 66.218667z m410.368 0c0 23.637333 13.013333 45.525333 34.176 57.344a70.4 70.4 0 0 0 68.394666 0c21.162667-11.818667 34.176-33.706667 34.176-57.344s-13.013333-45.525333-34.176-57.344a70.4 70.4 0 0 0-68.394666 0 65.792 65.792 0 0 0-34.176 57.344z m-136.789334 209.664c-182.272 0-330.538667 148.010667-330.538666 329.898667a32.981333 32.981333 0 0 0 17.024 28.842666c10.624 5.973333 23.722667 5.973333 34.304 0a32.896 32.896 0 0 0 17.024-28.842666c0-145.408 117.589333-263.68 262.144-263.68s262.144 118.272 262.144 263.68a33.706667 33.706667 0 0 0 34.176 32.896 33.621333 33.621333 0 0 0 34.176-32.896c0.085333-181.930667-148.224-329.898667-330.453334-329.898667z m452.778667-175.488a143.232 143.232 0 0 0-57.941333-12.458667l-55.125334 106.666667-6.826666 13.226667c16.341333 7.594667 36.309333 12.16 57.941333 12.458666l55.125333-106.666666 6.826667-13.226667z m-143.658667 79.402667l45.013334-86.997334c-37.461333 9.856-63.872 33.578667-63.872 61.312 0 12.458667 5.333333 24.106667 14.549333 34.048l4.309333-8.362666z m171.733334-59.733334l-4.309334 8.362667-44.928 86.997333c37.418667-9.856 63.829333-33.578667 63.829334-61.312-0.042667-12.458667-5.376-24.106667-14.592-34.048zM184.405333 292.864a141.866667 141.866667 0 0 0-57.941333-12.458667l-55.125333 106.666667-6.826667 13.226667a142.506667 142.506667 0 0 0 57.941333 12.458666l55.125334-106.666666 6.826666-13.226667zM21.888 346.581333c0 12.458667 5.333333 24.106667 14.549333 34.048l4.309334-8.362666L85.76 285.269333c-37.461333 9.856-63.872 33.578667-63.872 61.312z m205.141333 0c0-12.458667-5.333333-24.106667-14.549333-34.048l-4.309333 8.362667L163.2 407.893333c37.418667-9.856 63.829333-33.578667 63.829333-61.312z" p-id="4221" fill="#cccccc"></path></svg>